<svg width="15" height="13" viewBox="0 0 15 13" fill="none" xmlns="http://www.w3.org/2000/svg">
<path d="M14.6809 10.5109C14.394 10.6577 14.0409 10.5454 13.8928 10.257H13.8928C12.9943 8.50622 10.609 5.99621 7.49997 5.99621C4.71173 5.99621 2.23389 8.06141 1.10719 10.2571C0.958976 10.5444 0.606008 10.6578 0.318459 10.5101C0.0309393 10.3624 -0.0828497 10.0101 0.0644257 9.72233C1.35894 7.19457 4.20568 4.82434 7.49997 4.82434C11.257 4.82434 13.9478 7.79363 14.9355 9.72233C15.083 10.0104 14.969 10.3634 14.6809 10.5109V10.5109ZM0.227668 4.21789L1.53267 5.39516C1.77437 5.61321 2.14474 5.59139 2.36022 5.35256C2.57695 5.11227 2.55791 4.74178 2.31762 4.52501L1.01262 3.34774C0.772414 3.13104 0.401926 3.15002 0.18507 3.39034C-0.0316681 3.63063 -0.0126251 4.00112 0.227668 4.21789V4.21789ZM13.4672 5.39516L14.7722 4.21789C15.0125 4.00112 15.0316 3.63063 14.8148 3.39034C14.598 3.15008 14.2276 3.13098 13.9873 3.34774L12.6823 4.52501C12.442 4.74175 12.423 5.11227 12.6397 5.35256C12.8554 5.59165 13.2258 5.61295 13.4672 5.39516V5.39516ZM7.49994 3.0592C7.82356 3.0592 8.08588 2.79685 8.08588 2.47326V0.713867C8.08588 0.390283 7.82356 0.12793 7.49994 0.12793C7.17633 0.12793 6.914 0.390283 6.914 0.713867V2.47326C6.91403 2.79688 7.17636 3.0592 7.49994 3.0592V3.0592ZM10.3784 9.98929C10.3784 11.5788 9.0871 12.8721 7.49997 12.8721C5.91284 12.8721 4.62158 11.5788 4.62158 9.98929C4.62158 8.39973 5.91284 7.1065 7.49997 7.1065C9.0871 7.1065 10.3784 8.39973 10.3784 9.98929ZM9.20651 9.98929C9.20651 9.0459 8.44099 8.27838 7.5 8.27838C6.55901 8.27838 5.79346 9.0459 5.79346 9.98929C5.79346 10.9327 6.55898 11.7002 7.49997 11.7002C8.44096 11.7002 9.20651 10.9327 9.20651 9.98929Z" fill="url(#paint0_linear_653_1341)"/>
<defs>
<linearGradient id="paint0_linear_653_1341" x1="7.5" y1="0.12793" x2="7.5" y2="12.8721" gradientUnits="userSpaceOnUse">
<stop stop-color="#A749F2"/>
<stop offset="1" stop-color="#7B51E2"/>
</linearGradient>
</defs>
</svg>
