<svg width="542" height="542" viewBox="0 0 542 542" fill="none" xmlns="http://www.w3.org/2000/svg">
<path fill-rule="evenodd" clip-rule="evenodd" d="M505.566 271.012L505.915 273.361L506.906 275.731L508.457 278.138L510.489 280.597L512.925 283.119L515.684 285.711L518.681 288.379L521.829 291.122L525.037 293.938L528.211 296.821L531.255 299.758L534.073 302.735L536.577 305.735L538.681 308.736L540.315 311.717L541.419 314.655L541.954 317.526L541.896 320.31L541.246 322.989L540.02 325.548L538.256 327.979L536.005 330.276L533.331 332.439L530.307 334.473L527.012 336.387L523.526 338.193L519.925 339.908L516.284 341.549L512.672 343.135L509.15 344.685L505.771 346.22L502.582 347.761L499.621 349.326L496.92 350.934L494.503 352.602L492.388 354.349L490.589 356.188L489.114 358.135L487.965 360.202L487.142 362.401L486.639 364.742L486.448 367.232L486.554 369.876L486.941 372.68L487.586 375.642L488.462 378.76L489.536 382.028L490.77 385.435L492.122 388.964L493.54 392.595L494.972 396.301L496.357 400.052L497.632 403.809L498.731 407.53L499.588 411.17L500.139 414.681L500.326 418.013L500.097 421.119L499.412 423.957L498.244 426.489L496.582 428.686L494.43 430.532L491.81 432.019L488.76 433.155L485.329 433.957L481.581 434.456L477.585 434.691L473.417 434.711L469.154 434.568L464.873 434.321L460.648 434.032L456.548 433.762L452.637 433.574L448.974 433.531L445.614 433.695L442.606 434.128L439.996 434.896L437.83 436.064L436.151 437.704L434.948 439.833L434.151 442.409L433.693 445.387L433.511 448.721L433.54 452.361L433.718 456.254L433.983 460.342L434.273 464.56L434.526 468.839L434.679 473.107L434.675 477.285L434.459 481.298L433.982 485.069L433.206 488.527L432.097 491.61L430.638 494.266L428.821 496.456L426.651 498.157L424.145 499.364L421.331 500.087L418.244 500.351L414.928 500.196L411.43 499.672L407.799 498.837L404.083 497.755L400.327 496.491L396.575 495.113L392.864 493.682L389.226 492.26L385.688 490.901L382.271 489.656L378.992 488.568L375.862 487.675L372.887 487.011L370.071 486.602L367.413 486.473L364.912 486.64L362.56 487.117L360.35 487.915L358.273 489.038L356.317 490.487L354.469 492.261L352.716 494.351L351.042 496.745L349.43 499.424L347.862 502.365L346.321 505.538L344.786 508.903L343.237 512.416L341.655 516.023L340.019 519.664L338.311 523.271L336.512 526.769L334.608 530.083L332.584 533.131L330.431 535.835L328.145 538.123L325.725 539.928L323.176 541.198L320.506 541.895L317.73 542L314.865 541.512L311.932 540.452L308.954 538.859L305.953 536.789L302.953 534.314L299.973 531.518L297.032 528.488L294.145 525.321L291.324 522.112L288.574 518.956L285.901 515.943L283.303 513.162L280.776 510.698L278.312 508.63L275.901 507.038L273.529 506L271.179 505.597L268.83 505.891L266.463 506.833L264.06 508.342L261.605 510.34L259.089 512.747L256.502 515.482L253.841 518.464L251.103 521.604L248.293 524.811L245.416 527.991L242.483 531.048L239.508 533.888L236.51 536.42L233.507 538.559L230.524 540.233L227.583 541.381L224.705 541.962L221.914 541.952L219.226 541.348L216.657 540.167L214.216 538.444L211.908 536.229L209.735 533.586L207.691 530.588L205.768 527.312L203.953 523.837L202.232 520.242L200.586 516.602L198.996 512.985L197.444 509.454L195.908 506.062L194.369 502.856L192.807 499.876L191.203 497.153L189.54 494.712L187.8 492.573L185.969 490.748L184.031 489.247L181.974 488.072L179.786 487.222L177.457 486.695L174.98 486.479L172.347 486.562L169.557 486.928L166.607 487.553L163.501 488.411L160.245 489.471L156.849 490.694L153.329 492.038L149.706 493.454L146.004 494.887L142.256 496.278L138.498 497.564L134.773 498.679L131.125 499.558L127.602 500.136L124.254 500.353L121.128 500.159L118.268 499.511L115.711 498.383L113.486 496.76L111.612 494.646L110.096 492.063L108.933 489.045L108.104 485.642L107.583 481.916L107.328 477.937L107.294 473.78L107.426 469.522L107.667 465.239L107.955 461.007L108.228 456.894L108.425 452.966L108.482 449.282L108.337 445.895L107.927 442.857L107.189 440.214L106.055 438.011L104.455 436.292L102.364 435.053L99.8216 434.226L96.8738 433.744L93.5665 433.542L89.9489 433.556L86.0739 433.725L81.9997 433.986L77.7898 434.276L73.5129 434.534L69.2421 434.697L65.0538 434.708L61.0253 434.51L57.2326 434.056L53.747 433.305L50.6321 432.223L47.941 430.793L45.7129 429.004L43.972 426.861L42.7257 424.381L41.9652 421.59L41.6658 418.524L41.7894 415.224L42.2864 411.739L43.0989 408.116L44.1637 404.405L45.415 400.651L46.7867 396.897L48.2152 393.181L49.6399 389.536L51.0055 385.989L52.2617 382.562L53.364 379.271L54.2735 376.128L54.9571 373.141L55.3867 370.312L55.5393 367.642L55.3964 365.128L54.9441 362.764L54.1724 360.544L53.0755 358.456L51.6518 356.491L49.9038 354.635L47.8387 352.875L45.4686 351.195L42.8111 349.578L39.8898 348.008L36.7348 346.465L33.3835 344.93L29.8807 343.383L26.2789 341.805L22.6385 340.174L19.0265 338.472L15.5164 336.681L12.1856 334.785L9.1136 332.771L6.37899 330.629L4.05581 328.354L2.21004 325.944L0.895806 323.405L0.152087 320.744L0 317.975L0.441122 315.117L1.45695 312.189L3.0096 309.213L5.04363 306.213L7.48875 303.212L10.2632 300.229L13.2772 297.285L16.4366 294.393L19.6456 291.566L22.8098 288.811L25.837 286.131L28.6392 283.527L31.1319 280.994L33.2341 278.526L34.867 276.111L35.952 273.737L36.4086 271.385L36.1696 269.037L35.2758 266.672L33.8089 264.272L31.8477 261.822L29.4707 259.311L26.7582 256.73L23.7932 254.074L20.6628 251.343L17.4579 248.538L14.2723 245.666L11.2017 242.737L8.34091 239.765L5.78156 236.767L3.60834 233.764L1.89557 230.778L0.70375 227.833L0.0766086 224.95L0.0389528 222.15L0.595603 219.454L1.73153 216.874L3.41321 214.423L5.59098 212.104L8.20227 209.92L11.1752 207.866L14.4322 205.934L17.8937 204.111L21.4815 202.383L25.1205 200.731L28.7414 199.138L32.2818 197.584L35.6866 196.047L38.9086 194.509L41.9079 192.949L44.6523 191.349L47.1161 189.691L49.2799 187.958L51.1299 186.135L52.6575 184.206L53.8585 182.159L54.7333 179.981L55.2865 177.664L55.5266 175.199L55.4663 172.579L55.1227 169.801L54.5172 166.863L53.6763 163.77L52.6315 160.525L51.4198 157.14L50.0839 153.629L48.6721 150.013L47.2385 146.316L45.8419 142.57L44.5452 138.812L43.4138 135.082L42.5139 131.426L41.9098 127.891L41.6615 124.527L41.8214 121.382L42.4316 118.499L43.5214 115.916L45.1048 113.664L47.1795 111.762L49.7267 110.217L52.7118 109.026L56.0857 108.172L59.7881 107.628L63.7495 107.353L67.8953 107.303L72.1483 107.424L76.4314 107.658L80.6703 107.945L84.7949 108.222L88.7398 108.427L92.4454 108.497L95.8571 108.371L98.9245 107.985L101.601 107.275L103.841 106.175L105.599 104.614L106.874 102.561L107.731 100.053L108.238 97.1356L108.46 93.855L108.461 90.2601L108.302 86.4034L108.046 82.3427L107.756 78.141L107.494 73.8666L107.321 69.5924L107.296 65.3945L107.475 61.3504L107.907 57.536L108.634 54.0234L109.688 50.8768L111.09 48.1502L112.85 45.8841L114.965 44.1038L117.419 42.8182L120.186 42.0197L123.232 41.6848L126.514 41.7764L129.987 42.2457L133.6 43.0354L137.306 44.0826L141.058 45.3214L144.814 46.686L148.534 48.1122L152.185 49.5395L155.741 50.9117L159.178 52.1784L162.48 53.2945L165.634 54.2207L168.634 54.9234L171.476 55.3741L174.158 55.5495L176.684 55.4307L179.06 55.0034L181.292 54.2574L183.389 53.1865L185.364 51.7887L187.228 50.0662L188.995 48.0259L190.681 45.6795L192.301 43.044L193.875 40.1426L195.419 37.0049L196.954 33.6675L198.499 30.1748L200.074 26.5787L201.7 22.9388L203.395 19.3218L205.179 15.8007L207.066 12.4526L209.07 9.35695L211.201 6.59258L213.466 4.23401L215.865 2.34799L218.394 0.989731L221.046 0.199529L223.806 0L226.658 0.394311L229.581 1.36555L232.554 2.87733L235.553 4.87549L238.555 7.29083L241.539 10.0423L244.487 13.0408L247.383 16.1922L250.216 19.4009L252.977 22.5722L255.663 25.6137L258.273 28.4371L260.811 30.9575L263.284 33.0938L265.702 34.767L268.079 35.8985L270.432 36.4083L272.779 36.2247L275.142 35.38L277.539 33.9558L279.984 32.0311L282.49 29.6842L285.065 26.9952L287.715 24.0471L290.44 20.9266L293.239 17.724L296.106 14.5333L299.031 11.4499L302 8.56889L304.996 5.98223L307.999 3.7753L310.987 2.02338L313.937 0.788189L316.826 0.114887L319.632 0.0298437L322.338 0.53948L324.927 1.63032L327.389 3.27022L329.718 5.41071L331.912 7.9901L333.976 10.9371L335.918 14.1745L337.749 17.6228L339.484 21.2034L341.141 24.8411L342.738 28.466L344.295 32.0151L345.832 35.4327L347.369 38.6708L348.926 41.6892L350.522 44.4551L352.175 46.9421L353.901 49.1305L355.717 51.0059L357.637 52.5594L359.674 53.7865L361.841 54.6872L364.147 55.2658L366.6 55.5304L369.207 55.4935L371.973 55.1717L374.897 54.5862L377.978 53.7629L381.211 52.733L384.585 51.533L388.087 50.2052L391.695 48.7976L395.387 47.3636L399.13 45.9617L402.888 44.6546L406.622 43.5076L410.286 42.5868L413.832 41.9569L417.211 41.6781L420.375 41.8038L423.28 42.377L425.888 43.4279L428.167 44.9719L430.098 47.0081L431.671 49.5188L432.89 52.4707L433.769 55.8159L434.337 59.4947L434.631 63.4383L434.697 67.5724L434.588 71.8198L434.361 76.1034L434.076 80.3487L433.796 84.4849L433.583 88.4466L433.5 92.1735L433.608 95.6105L433.972 98.7072L434.653 101.416L435.719 103.693L437.241 105.491L439.256 106.802L441.73 107.69L444.616 108.223L447.869 108.465L451.441 108.481L455.278 108.333L459.325 108.082L463.518 107.793L467.789 107.526L472.066 107.343L476.272 107.305L480.331 107.466L484.166 107.876L487.705 108.578L490.883 109.605L493.645 110.979L495.949 112.711L497.768 114.797L499.093 117.225L499.93 119.969L500.3 122.994L500.241 126.26L499.8 129.719L499.033 133.323L498.004 137.023L496.778 140.774L495.421 144.53L493.998 148.255L492.569 151.913L491.19 155.477L489.913 158.924L488.784 162.238L487.841 165.405L487.12 168.417L486.648 171.271L486.45 173.966L486.545 176.505L486.947 178.892L487.667 181.135L488.712 183.243L490.084 185.227L491.781 187.099L493.796 188.874L496.118 190.566L498.732 192.191L501.613 193.768L504.733 195.314L508.056 196.848L511.538 198.392L515.127 199.964L518.766 201.585L522.387 203.274L525.919 205.05L529.284 206.928L532.402 208.923L535.195 211.044L537.589 213.298L539.515 215.686L540.917 218.206L541.753 220.848L542 223.6L541.653 226.446L540.726 229.365L539.256 232.334L537.294 235.332L534.909 238.334L532.181 241.321L529.199 244.273L526.057 247.173L522.849 250.012L519.672 252.779L516.617 255.471L513.773 258.087L511.225 260.63L509.056 263.108L507.343 265.531L506.165 267.911L505.603 270.264L505.566 271.012Z" fill="url(#paint0_linear_0_55)"/>
<defs>
<linearGradient id="paint0_linear_0_55" x1="271" y1="0" x2="271" y2="542" gradientUnits="userSpaceOnUse">
<stop stop-color="#A749F2"/>
<stop offset="1" stop-color="#7B51E2"/>
</linearGradient>
</defs>
</svg>
