<svg width="22" height="23" viewBox="0 0 22 23" fill="none" xmlns="http://www.w3.org/2000/svg">
<g clip-path="url(#clip0_8_625)">
<path d="M17.7606 7.41932C17.7606 7.22954 17.9145 7.07556 18.1043 7.07556C18.2941 7.07556 18.4481 7.23023 18.4481 7.41932V20.6065C18.4481 21.1887 18.2089 21.7187 17.825 22.1032C17.4412 22.4871 16.9105 22.7263 16.3283 22.7263H5.67204C5.08982 22.7263 4.55844 22.4871 4.17529 22.1032C3.79144 21.7194 3.55225 21.1895 3.55225 20.6065V7.41932C3.55225 7.22954 3.70622 7.07556 3.89598 7.07556C4.08576 7.07556 4.23973 7.23023 4.23973 7.41932V20.6065C4.23973 20.999 4.40161 21.3577 4.66084 21.6169C4.92008 21.8762 5.27888 22.0388 5.67132 22.0388H16.3276C16.7201 22.0388 17.0781 21.8762 17.3374 21.6169C17.5974 21.357 17.7592 20.9989 17.7592 20.6072V7.41932H17.7606Z" fill="#D02626"/>
<path d="M8.4363 19.7184C8.4363 19.9082 8.28232 20.0622 8.09254 20.0622C7.90275 20.0622 7.74878 19.9082 7.74878 19.7184V7.50813C7.74878 7.31834 7.90275 7.16437 8.09254 7.16437C8.28232 7.16437 8.4363 7.31834 8.4363 7.50813V19.7184Z" fill="#D02626"/>
<path d="M11.3438 19.7184C11.3438 19.9082 11.1898 20.0622 11 20.0622C10.8102 20.0622 10.6562 19.9082 10.6562 19.7184V7.50813C10.6562 7.31834 10.8102 7.16437 11 7.16437C11.1898 7.16437 11.3438 7.31834 11.3438 7.50813V19.7184Z" fill="#D02626"/>
<path d="M14.2522 19.7184C14.2522 19.9082 14.0983 20.0622 13.9085 20.0622C13.7186 20.0622 13.5647 19.9082 13.5647 19.7184V7.50813C13.5647 7.31834 13.7186 7.16437 13.9085 7.16437C14.0983 7.16437 14.2522 7.31834 14.2522 7.50813V19.7184Z" fill="#D02626"/>
<path d="M8.23583 2.84599C8.23583 3.03578 8.08185 3.18975 7.89207 3.18975C7.70231 3.18975 7.54834 3.03578 7.54834 2.84599C7.54834 2.26232 7.78681 1.73239 8.17069 1.34854C8.55454 0.964663 9.0845 0.726196 9.66814 0.726196H12.3322C12.9152 0.726196 13.4451 0.965387 13.8289 1.34924C14.2128 1.73309 14.452 2.26446 14.452 2.84599C14.452 3.03578 14.298 3.18975 14.1083 3.18975C13.9185 3.18975 13.7645 3.03578 13.7645 2.84599C13.7645 2.45355 13.6027 2.09475 13.3434 1.83552C13.0841 1.57625 12.7254 1.41368 12.3329 1.41368H9.66889C9.27573 1.41368 8.91765 1.57553 8.65769 1.83479C8.39767 2.09475 8.23583 2.45283 8.23583 2.84599Z" fill="#D02626"/>
<path d="M3.00789 3.83423H18.9923C19.3296 3.83423 19.6375 3.97244 19.861 4.19589L19.8624 4.19734C20.0858 4.42076 20.224 4.72871 20.224 5.06602V5.95406C20.224 6.14381 20.0701 6.29778 19.8803 6.29778H19.871H2.11988C1.9301 6.29778 1.77612 6.14381 1.77612 5.95406V5.94546V5.06602C1.77612 4.72944 1.91433 4.42076 2.13779 4.19734L2.13923 4.19589C2.36266 3.97247 2.6713 3.83423 3.00789 3.83423ZM18.9923 4.52175H3.00789C2.85822 4.52175 2.72143 4.58264 2.62404 4.68072L2.62259 4.68217C2.52447 4.77954 2.46361 4.91563 2.46361 5.06602V5.6103H19.5358V5.06602C19.5358 4.91636 19.4749 4.77957 19.3769 4.68217L19.3754 4.68072C19.2781 4.58264 19.142 4.52175 18.9923 4.52175Z" fill="#D02626"/>
</g>
<defs>
<clipPath id="clip0_8_625">
<rect width="22" height="22" fill="white" transform="translate(0 0.726196)"/>
</clipPath>
</defs>
</svg>
