<svg width="22" height="23" viewBox="0 0 22 23" fill="none" xmlns="http://www.w3.org/2000/svg">
<path d="M8.25 19.2887H4.125C3.94266 19.2887 3.7678 19.2163 3.63886 19.0874C3.50993 18.9584 3.4375 18.7836 3.4375 18.6012V14.761C3.4375 14.6707 3.45528 14.5813 3.48983 14.4979C3.52438 14.4145 3.57502 14.3387 3.63886 14.2748L13.9514 3.96235C14.0803 3.83342 14.2552 3.76099 14.4375 3.76099C14.6198 3.76099 14.7947 3.83342 14.9236 3.96235L18.7639 7.80258C18.8928 7.93151 18.9652 8.10638 18.9652 8.28871C18.9652 8.47105 18.8928 8.64592 18.7639 8.77485L8.25 19.2887Z" stroke="#121212" stroke-width="1.5" stroke-linecap="round" stroke-linejoin="round"/>
<path d="M11.6875 6.2262L16.5 11.0387" stroke="#121212" stroke-width="1.5" stroke-linecap="round" stroke-linejoin="round"/>
</svg>
