<svg width="20" height="21" viewBox="0 0 20 21" fill="none" xmlns="http://www.w3.org/2000/svg">
<path d="M10 17.6012C10 17.6012 2.1875 13.2262 2.1875 7.9137C2.18766 6.97474 2.51301 6.06482 3.10824 5.33864C3.70347 4.61245 4.53183 4.11483 5.45249 3.93038C6.37315 3.74592 7.32928 3.88602 8.15832 4.32685C8.98736 4.76769 9.63814 5.48204 10 6.34847L9.99999 6.34847C10.3619 5.48205 11.0126 4.76769 11.8417 4.32686C12.6707 3.88602 13.6268 3.74592 14.5475 3.93038C15.4682 4.11483 16.2965 4.61245 16.8918 5.33864C17.487 6.06482 17.8123 6.97474 17.8125 7.9137C17.8125 13.2262 10 17.6012 10 17.6012Z" fill="url(#paint0_linear_0_367)" stroke="url(#paint1_linear_0_367)" stroke-linecap="round" stroke-linejoin="round"/>
<defs>
<linearGradient id="paint0_linear_0_367" x1="10" y1="3.8512" x2="10" y2="17.6012" gradientUnits="userSpaceOnUse">
<stop stop-color="#A749F2"/>
<stop offset="1" stop-color="#7B51E2"/>
</linearGradient>
<linearGradient id="paint1_linear_0_367" x1="10" y1="3.8512" x2="10" y2="17.6012" gradientUnits="userSpaceOnUse">
<stop stop-color="#A749F2"/>
<stop offset="1" stop-color="#7B51E2"/>
</linearGradient>
</defs>
</svg>
